<?xml version="1.0" standalone="yes"?>
<svg xmlns="http://www.w3.org/2000/svg" width="500" height="500">
<path style="fill:#010101; stroke:none;" d="M0 0L0 500L65 500L65 499C48.1747 497.522 35.0205 482.711 28.8765 468C22.9016 453.693 22.067 435.282 19.8688 420C16.6482 397.61 12.0207 375.408 8.8696 353C6.50874 336.212 3.66566 321.7 12.3133 306C18.9876 293.882 31.7098 285.143 45 281.898C69.1552 276.001 94.5264 273.988 119 269.576C138.55 266.051 160.093 260.16 180 261.039C196.837 261.783 211.543 272.711 219.712 287C227.024 299.788 227.709 315.686 230.08 330L242.247 404C245.13 421.296 248.786 437.649 240.215 454C234.102 465.663 223.434 474.46 211 478.644C193.684 484.472 173.979 485.399 156 488.414C133.201 492.237 109.131 498.523 86 499L86 500L500 500L500 0L205 0L205 1C218.652 2.19049 232.895 8.34918 246 12.2801C265.626 18.167 285.297 23.955 305 29.5787C327.288 35.9404 349.4 42.2104 358.539 66C366.127 85.7498 357.423 105.973 351.344 125C345.151 144.383 339.06 164.239 334.064 183.961C330.737 197.096 328.218 212.073 321.56 224C312.934 239.453 296.147 250.969 278 250.971C263.66 250.972 248.631 244.209 235 240.291C211.941 233.663 188.983 226.614 166 219.72C144.323 213.218 124.063 207.891 114.288 185C107.165 168.32 112.998 151.394 117.709 135C124.793 110.349 131.435 85.5239 138.975 61C142.289 50.2233 144.32 38.1128 149.377 28C155.548 15.6566 168.644 2.47043 183 1L165 0L129 0L0 0z"/>
<path style="fill:#f3eae2; stroke:none;" d="M148 31L149 31C155.648 15.5909 170.204 3.26361 187 1C171.873 -4.42328 151.667 18.5381 148 31z"/>
<path style="fill:#fc9c40; stroke:none;" d="M187 0L187 1L195 1L187 0z"/>
<path style="fill:#ed6464; stroke:none;" d="M195 0.513885C180.194 1.43835 166.136 5.83307 156.518 18.0008C147.083 29.9352 144.254 46.6505 140.141 61C133.061 85.6991 125.624 110.29 118.579 135C113.719 152.046 108.375 168.613 115.454 186C124.117 207.278 143.949 212.705 164 218.421C188.392 225.376 212.615 232.918 237 239.86C249.668 243.466 264.626 250.762 278 249.816C314.868 247.208 323.513 218.501 332.424 188C338.749 166.355 344.991 144.697 351.14 123C356.657 103.538 364.825 84.0026 356.792 64C348.485 43.3128 329.595 37.1641 310 31.5787C286.675 24.9301 263.158 18.8869 240 11.6589C226.473 7.4371 209.335 -0.381195 195 0.513885z"/>
<path style="fill:#fc9c40; stroke:none;" d="M198 0L198 1L201 1L198 0z"/>
<path style="fill:#f3eae2; stroke:none;" d="M201 0L201 1L205 1L201 0z"/>
<path style="fill:#fc9c40; stroke:none;" d="M183 1L184 2L183 1M204.667 1.33334L205.333 1.66666L204.667 1.33334z"/>
<path style="fill:#f3eae2; stroke:none;" d="M206 1L206 2L264 18L246 11.9753L206 1z"/>
<path style="fill:#fc9c40; stroke:none;" d="M179 2L180 3L179 2M208.667 2.33334L209.333 2.66666L208.667 2.33334M176 3L177 4L176 3M212 3L213 4L212 3M174 4L175 5L174 4M215 4L216 5L215 4M172 5L173 6L172 5M219 5L220 6L219 5M170 6L171 7L170 6M222 6L223 7L222 6M168 7L169 8L168 7M225.667 7.33334L226.333 7.66666L225.667 7.33334M167 8L168 9L167 8M229 8L230 9L229 8M232 9L233 10L232 9M164 10L165 11L164 10M236 10L237 11L236 10M239 11L240 12L239 11M242.667 12.3333L243.333 12.6667L242.667 12.3333M246 13L247 14L246 13M249.667 14.3333L250.333 14.6667L249.667 14.3333M253 15L254 16L253 15M256.667 16.3333L257.333 16.6667L256.667 16.3333M259.667 17.3333L260.333 17.6667L259.667 17.3333M263.667 18.3333L264.333 18.6667L263.667 18.3333z"/>
<path style="fill:#f3eae2; stroke:none;" d="M265 18L265 19L271 20L271 19L265 18z"/>
<path style="fill:#fc9c40; stroke:none;" d="M155 19L156 20L155 19M266.667 19.3333L267.333 19.6667L266.667 19.3333M270.667 20.3333L271.333 20.6667L270.667 20.3333z"/>
<path style="fill:#f3eae2; stroke:none;" d="M272.667 20.3333L273.333 20.6667L272.667 20.3333z"/>
<path style="fill:#fc9c40; stroke:none;" d="M273.667 21.3333L274.333 21.6667L273.667 21.3333z"/>
<path style="fill:#f3eae2; stroke:none;" d="M275 21L275 22L278 22L275 21z"/>
<path style="fill:#fc9c40; stroke:none;" d="M153 22L154 23L153 22M277.667 22.3333L278.333 22.6667L277.667 22.3333z"/>
<path style="fill:#f3eae2; stroke:none;" d="M279.667 22.3333L280.333 22.6667L279.667 22.3333z"/>
<path style="fill:#fc9c40; stroke:none;" d="M280.667 23.3333L281.333 23.6667L280.667 23.3333z"/>
<path style="fill:#f3eae2; stroke:none;" d="M282 23L282 24L285 24L282 23z"/>
<path style="fill:#fc9c40; stroke:none;" d="M284 24L284 25L287 25L284 24z"/>
<path style="fill:#f3eae2; stroke:none;" d="M287 24L288 25L287 24z"/>
<path style="fill:#fc9c40; stroke:none;" d="M151 25L152 26L151 25M288.667 25.3333L289.333 25.6667L288.667 25.3333z"/>
<path style="fill:#f3eae2; stroke:none;" d="M290.667 25.3333L291.333 25.6667L290.667 25.3333z"/>
<path style="fill:#fc9c40; stroke:none;" d="M291 26L291 27L294 27L291 26z"/>
<path style="fill:#f3eae2; stroke:none;" d="M294 26L295 27L294 26z"/>
<path style="fill:#fc9c40; stroke:none;" d="M150 27L151 28L150 27M295.667 27.3333L296.333 27.6667L295.667 27.3333z"/>
<path style="fill:#f3eae2; stroke:none;" d="M297 27L298 28L297 27z"/>
<path style="fill:#fc9c40; stroke:none;" d="M298.667 28.3333L299.333 28.6667L298.667 28.3333z"/>
<path style="fill:#f3eae2; stroke:none;" d="M300.667 28.3333L301.333 28.6667L300.667 28.3333z"/>
<path style="fill:#fc9c40; stroke:none;" d="M149 29L150 30L149 29M302.667 29.3333L303.333 29.6667L302.667 29.3333z"/>
<path style="fill:#f3eae2; stroke:none;" d="M304 29L305 30L304 29z"/>
<path style="fill:#fc9c40; stroke:none;" d="M306 30L307 31L306 30z"/>
<path style="fill:#f3eae2; stroke:none;" d="M307.667 30.3333L308.333 30.6667L307.667 30.3333z"/>
<path style="fill:#fc9c40; stroke:none;" d="M148.333 31.6667L148.667 32.3333L148.333 31.6667M309.667 31.3333L310.333 31.6667L309.667 31.3333z"/>
<path style="fill:#f3eae2; stroke:none;" d="M311 31L312 32L311 31M147.333 32.6667L147.667 33.3333L147.333 32.6667z"/>
<path style="fill:#fc9c40; stroke:none;" d="M313 32L314 33L313 32z"/>
<path style="fill:#f3eae2; stroke:none;" d="M314 32L315 33L314 32z"/>
<path style="fill:#fc9c40; stroke:none;" d="M316 33L317 34L316 33z"/>
<path style="fill:#f3eae2; stroke:none;" d="M317.667 33.3333L318.333 33.6667L317.667 33.3333z"/>
<path style="fill:#fc9c40; stroke:none;" d="M147 34L147 37L148 37L147 34M320 34L321 35L320 34z"/>
<path style="fill:#f3eae2; stroke:none;" d="M321 34L322 35L321 34M146 35L146 38L147 38L146 35z"/>
<path style="fill:#fc9c40; stroke:none;" d="M323 35L324 36L323 35z"/>
<path style="fill:#f3eae2; stroke:none;" d="M324 35L325 36L324 35z"/>
<path style="fill:#fc9c40; stroke:none;" d="M326 36L327 37L326 36z"/>
<path style="fill:#f3eae2; stroke:none;" d="M327 36L328 37L327 36z"/>
<path style="fill:#fc9c40; stroke:none;" d="M329 37L330 38L329 37z"/>
<path style="fill:#f3eae2; stroke:none;" d="M330 37L331 38L330 37z"/>
<path style="fill:#fc9c40; stroke:none;" d="M146.333 38.6667L146.667 39.3333L146.333 38.6667z"/>
<path style="fill:#f3eae2; stroke:none;" d="M332 38L333 39L332 38M145.333 39.6667L145.667 40.3333L145.333 39.6667z"/>
<path style="fill:#fc9c40; stroke:none;" d="M334 39L335 40L334 39z"/>
<path style="fill:#f3eae2; stroke:none;" d="M336 40L337 41L336 40z"/>
<path style="fill:#fc9c40; stroke:none;" d="M145.333 41.6667L145.667 42.3333L145.333 41.6667M337 41L338 42L337 41z"/>
<path style="fill:#f3eae2; stroke:none;" d="M338 41L339 42L338 41M144 42L125 110L126 110L139.709 62L144 42M339 42L339 43L342 44L339 42z"/>
<path style="fill:#fc9c40; stroke:none;" d="M340 43L341 44L340 43z"/>
<path style="fill:#f3eae2; stroke:none;" d="M342 44L342 45L350 53L351 53L342 44z"/>
<path style="fill:#fc9c40; stroke:none;" d="M144.333 45.6667L144.667 46.3333L144.333 45.6667M343 45L344 46L343 45M344 46L345 47L344 46M345 47L346 48L345 47M143.333 48.6667L143.667 49.3333L143.333 48.6667M346 48L347 49L346 48M347 49L348 50L347 49M348 50L349 51L348 50M349 51L350 52L349 51M142.333 52.6667L142.667 53.3333L142.333 52.6667z"/>
<path style="fill:#f3eae2; stroke:none;" d="M351 53L352 56L353 56L351 53z"/>
<path style="fill:#fc9c40; stroke:none;" d="M351 54L352 55L351 54M141.333 55.6667L141.667 56.3333L141.333 55.6667z"/>
<path style="fill:#f3eae2; stroke:none;" d="M353 56L355 60L356 60L353 56z"/>
<path style="fill:#fc9c40; stroke:none;" d="M353 57L354 58L353 57M354 58L355 59L354 58M140 59L141 60L140 59M355 60L356 61L355 60z"/>
<path style="fill:#f3eae2; stroke:none;" d="M356 61L360 94L361 94C361.859 83.1208 363.425 70.2009 356 61z"/>
<path style="fill:#fc9c40; stroke:none;" d="M139.333 62.6667L139.667 63.3333L139.333 62.6667M356 63L357 64L356 63M357 65L358 66L357 65M138 66L139 67L138 66M358 68L359 69L358 68M137.333 69.6667L137.667 70.3333L137.333 69.6667M359 72L360 73L359 72M136 73L137 74L136 73M135.333 76.6667L135.667 77.3333L135.333 76.6667M255 76L256 77L255 76M360 76L360 85L361 85L360 76M252 77L253 78L252 77z"/>
<path style="fill:#f3eae2; stroke:none;" d="M242 83L242 84C246.057 82.311 251.462 78.0874 255.995 78.6466C262.875 79.4951 261.449 86.3681 260.14 91C256.711 103.136 251.687 115.479 250 128C255.741 118.603 257.555 104.606 260.579 94C261.67 90.1712 264.081 84.9558 261.968 81.1088C257.575 73.1074 247.293 79.9108 242 83z"/>
<path style="fill:#fc9c40; stroke:none;" d="M258 77L259 78L258 77M250 78L251 79L250 78z"/>
<path style="fill:#010101; stroke:none;" d="M242 96C242.576 102.373 239.458 108.913 237.709 115C234.159 127.353 230.378 139.64 226.86 152C225.388 157.17 219.839 167.893 223.607 172.721C231.478 182.806 238.019 169.416 239.859 163C245.111 144.681 250.197 126.326 255.421 108C257.439 100.922 262.333 91.4208 261.758 84.0154C260.749 70.996 235.083 85.1351 232.032 91.0432C227.594 99.6344 237.207 99.6404 242 96z"/>
<path style="fill:#fc9c40; stroke:none;" d="M260 78L261 79L260 78M248 79L249 80L248 79M261 79L262 80L261 79M134 80L135 81L134 80M262 80L263 81L262 80M263 82L263 85L264 85L263 82M133 83L134 84L133 83M241 83L242 84L241 83M239 84L240 85L239 84z"/>
<path style="fill:#f3eae2; stroke:none;" d="M240 84L241 85L240 84z"/>
<path style="fill:#fc9c40; stroke:none;" d="M237 85L238 86L237 85z"/>
<path style="fill:#f3eae2; stroke:none;" d="M238 85L239 86L238 85z"/>
<path style="fill:#fc9c40; stroke:none;" d="M132.333 86.6667L132.667 87.3333L132.333 86.6667M235 86L236 87L235 86z"/>
<path style="fill:#f3eae2; stroke:none;" d="M236 86L237 87L236 86M234 87L235 88L234 87z"/>
<path style="fill:#fc9c40; stroke:none;" d="M262 87L263 88L262 87M360.333 87.6667L360.667 88.3333L360.333 87.6667M232 88L231 90L232 88z"/>
<path style="fill:#f3eae2; stroke:none;" d="M233 88L234 89L233 88M232 89L233 90L232 89z"/>
<path style="fill:#fc9c40; stroke:none;" d="M131 90L132 91L131 90z"/>
<path style="fill:#f3eae2; stroke:none;" d="M231 90L232 91L231 90z"/>
<path style="fill:#fc9c40; stroke:none;" d="M261.333 90.6667L261.667 91.3333L261.333 90.6667M230 91L229 96L230 96L230 91z"/>
<path style="fill:#f3eae2; stroke:none;" d="M230 92C230.337 98.1426 232.737 100.822 239 100L239 99C233.177 99.0882 232.364 96.7329 230 92z"/>
<path style="fill:#fc9c40; stroke:none;" d="M130 93L131 94L130 93M359.333 93.6667L359.667 94.3333L359.333 93.6667M260 94L261 95L260 94z"/>
<path style="fill:#f3eae2; stroke:none;" d="M359 95L357 105L358 105L359 95M241 96L239 99L242 98L232 133L233 133C234.891 124.753 245.831 102.974 241 96z"/>
<path style="fill:#fc9c40; stroke:none;" d="M129 97L130 98L129 97M230 97L231 98L230 97M259.333 97.6667L259.667 98.3333L259.333 97.6667M358 97L359 98L358 97M240.667 98.3333L241.333 98.6667L240.667 98.3333M231 99L232 100L231 99M128 100L129 101L128 100M233 100L234 101L233 100M236.667 100.333L237.333 100.667L236.667 100.333M240 101L241 102L240 101M258 101L259 102L258 101M357 101L358 102L357 101M127 104L128 105L127 104M257 104L258 105L257 104M356.333 104.667L356.667 105.333L356.333 104.667M239 105L240 106L239 105z"/>
<path style="fill:#f3eae2; stroke:none;" d="M356 106L355 112L356 112L356 106z"/>
<path style="fill:#fc9c40; stroke:none;" d="M126 107L127 108L126 107M355.333 107.667L355.667 108.333L355.333 107.667M238 108L239 109L238 108M256 108L257 109L256 108M125.333 110.667L125.667 111.333L125.333 110.667M237.333 111.667L237.667 112.333L237.333 111.667M255 111L256 112L255 111M354.333 111.667L354.667 112.333L354.333 111.667z"/>
<path style="fill:#f3eae2; stroke:none;" d="M124.333 112.667L124.667 113.333L124.333 112.667M354 113L353 119L354 119L354 113z"/>
<path style="fill:#fc9c40; stroke:none;" d="M124 114L125 115L124 114M254.333 114.667L254.667 115.333L254.333 114.667M353.333 114.667L353.667 115.333L353.333 114.667z"/>
<path style="fill:#f3eae2; stroke:none;" d="M123.333 115.667L123.667 116.333L123.333 115.667z"/>
<path style="fill:#fc9c40; stroke:none;" d="M236 115L237 116L236 115M123 117L124 118L123 117M235.333 118.667L235.667 119.333L235.333 118.667M253 118L254 119L253 118M352.333 118.667L352.667 119.333L352.333 118.667z"/>
<path style="fill:#f3eae2; stroke:none;" d="M122.333 119.667L122.667 120.333L122.333 119.667M352.333 120.667L352.667 121.333L352.333 120.667z"/>
<path style="fill:#fc9c40; stroke:none;" d="M122 121L123 122L122 121M252 121L253 122L252 121M351.333 121.667L351.667 122.333L351.333 121.667z"/>
<path style="fill:#f3eae2; stroke:none;" d="M121.333 122.667L121.667 123.333L121.333 122.667z"/>
<path style="fill:#fc9c40; stroke:none;" d="M234 122L235 123L234 122z"/>
<path style="fill:#f3eae2; stroke:none;" d="M351.333 123.667L351.667 124.333L351.333 123.667z"/>
<path style="fill:#fc9c40; stroke:none;" d="M121 124L122 125L121 124z"/>
<path style="fill:#f3eae2; stroke:none;" d="M120.333 125.667L120.667 126.333L120.333 125.667z"/>
<path style="fill:#fc9c40; stroke:none;" d="M233.333 125.667L233.667 126.333L233.333 125.667M251 125L252 126L251 125M350.333 125.667L350.667 126.333L350.333 125.667M120.333 127.667L120.667 128.333L120.333 127.667z"/>
<path style="fill:#f3eae2; stroke:none;" d="M350 127L351 128L350 127M119 128L119 131L120 131L119 128z"/>
<path style="fill:#fc9c40; stroke:none;" d="M232.333 128.667L232.667 129.333L232.333 128.667M250 128L251 129L250 128M349.333 128.667L349.667 129.333L349.333 128.667z"/>
<path style="fill:#f3eae2; stroke:none;" d="M249.333 129.667L249.667 130.333L249.333 129.667M349.333 130.667L349.667 131.333L349.333 130.667z"/>
<path style="fill:#fc9c40; stroke:none;" d="M119 131L120 132L119 131M249.333 131.667L249.667 132.333L249.333 131.667z"/>
<path style="fill:#f3eae2; stroke:none;" d="M118.333 132.667L118.667 133.333L118.333 132.667z"/>
<path style="fill:#fc9c40; stroke:none;" d="M231.333 132.667L231.667 133.333L231.333 132.667M348.333 132.667L348.667 133.333L348.333 132.667z"/>
<path style="fill:#f3eae2; stroke:none;" d="M248.333 133.667L248.667 134.333L248.333 133.667z"/>
<path style="fill:#fc9c40; stroke:none;" d="M118.333 134.667L118.667 135.333L118.333 134.667z"/>
<path style="fill:#f3eae2; stroke:none;" d="M231 134L230 140L231 140L231 134M348 134L349 135L348 134M117 135L117 138L118 138L117 135z"/>
<path style="fill:#fc9c40; stroke:none;" d="M230.333 135.667L230.667 136.333L230.333 135.667M248 135L249 136L248 135M347.333 135.667L347.667 136.333L347.333 135.667z"/>
<path style="fill:#f3eae2; stroke:none;" d="M247.333 136.667L247.667 137.333L247.333 136.667M347.333 137.667L347.667 138.333L347.333 137.667z"/>
<path style="fill:#fc9c40; stroke:none;" d="M117 138L118 139L117 138M247.333 138.667L247.667 139.333L247.333 138.667z"/>
<path style="fill:#f3eae2; stroke:none;" d="M116.333 139.667L116.667 140.333L116.333 139.667z"/>
<path style="fill:#fc9c40; stroke:none;" d="M229.333 139.667L229.667 140.333L229.333 139.667M346.333 139.667L346.667 140.333L346.333 139.667z"/>
<path style="fill:#f3eae2; stroke:none;" d="M246.333 140.667L246.667 141.333L246.333 140.667z"/>
<path style="fill:#fc9c40; stroke:none;" d="M116.333 141.667L116.667 142.333L116.333 141.667z"/>
<path style="fill:#f3eae2; stroke:none;" d="M229 141L228 147L229 147L229 141M346 141L347 142L346 141M115.333 142.667L115.667 143.333L115.333 142.667z"/>
<path style="fill:#fc9c40; stroke:none;" d="M228.333 142.667L228.667 143.333L228.333 142.667M246 142L247 143L246 142M345.333 142.667L345.667 143.333L345.333 142.667z"/>
<path style="fill:#f3eae2; stroke:none;" d="M245.333 143.667L245.667 144.333L245.333 143.667z"/>
<path style="fill:#fc9c40; stroke:none;" d="M115.333 144.667L115.667 145.333L115.333 144.667z"/>
<path style="fill:#f3eae2; stroke:none;" d="M345.333 144.667L345.667 145.333L345.333 144.667z"/>
<path style="fill:#fc9c40; stroke:none;" d="M245 145L246 146L245 145z"/>
<path style="fill:#f3eae2; stroke:none;" d="M114.333 146.667L114.667 147.333L114.333 146.667z"/>
<path style="fill:#fc9c40; stroke:none;" d="M227.333 146.667L227.667 147.333L227.333 146.667M344 146L345 147L344 146z"/>
<path style="fill:#f3eae2; stroke:none;" d="M244.333 147.667L244.667 148.333L244.333 147.667M344.333 147.667L344.667 148.333L344.333 147.667z"/>
<path style="fill:#fc9c40; stroke:none;" d="M114 148L115 149L114 148z"/>
<path style="fill:#f3eae2; stroke:none;" d="M227.333 148.667L227.667 149.333L227.333 148.667M113.333 149.667L113.667 150.333L113.333 149.667z"/>
<path style="fill:#fc9c40; stroke:none;" d="M226.333 149.667L226.667 150.333L226.333 149.667M244 149L245 150L244 149z"/>
<path style="fill:#f3eae2; stroke:none;" d="M243.333 150.667L243.667 151.333L243.333 150.667z"/>
<path style="fill:#fc9c40; stroke:none;" d="M343 150L344 151L343 150M113.333 151.667L113.667 152.333L113.333 151.667z"/>
<path style="fill:#f3eae2; stroke:none;" d="M226 151L226 154L227 154L226 151M343.333 151.667L343.667 152.333L343.333 151.667z"/>
<path style="fill:#fc9c40; stroke:none;" d="M225 152L225 155L226 155L225 152M243 152L244 153L243 152z"/>
<path style="fill:#f3eae2; stroke:none;" d="M112.333 153.667L112.667 154.333L112.333 153.667M242.333 153.667L242.667 154.333L242.333 153.667z"/>
<path style="fill:#fc9c40; stroke:none;" d="M342 153L343 154L342 153z"/>
<path style="fill:#f3eae2; stroke:none;" d="M342.333 154.667L342.667 155.333L342.333 154.667z"/>
<path style="fill:#fc9c40; stroke:none;" d="M112.333 155.667L112.667 156.333L112.333 155.667z"/>
<path style="fill:#f3eae2; stroke:none;" d="M225.333 155.667L225.667 156.333L225.333 155.667z"/>
<path style="fill:#fc9c40; stroke:none;" d="M242.333 155.667L242.667 156.333L242.333 155.667M224.333 156.667L224.667 157.333L224.333 156.667z"/>
<path style="fill:#f3eae2; stroke:none;" d="M111 157L111 160L112 160L111 157M241.333 157.667L241.667 158.333L241.333 157.667z"/>
<path style="fill:#fc9c40; stroke:none;" d="M341 157L342 158L341 157z"/>
<path style="fill:#f3eae2; stroke:none;" d="M224 158L224 161L225 161L224 158M341 158L342 159L341 158z"/>
<path style="fill:#fc9c40; stroke:none;" d="M223 159L223 162L224 162L223 159M241 159L242 160L241 159M111 160L111 174L112 174L111 160z"/>
<path style="fill:#f3eae2; stroke:none;" d="M240.333 160.667L240.667 161.333L240.333 160.667z"/>
<path style="fill:#fc9c40; stroke:none;" d="M340 160L341 161L340 160z"/>
<path style="fill:#f3eae2; stroke:none;" d="M340.333 161.667L340.667 162.333L340.333 161.667M223.333 162.667L223.667 163.333L223.333 162.667z"/>
<path style="fill:#fc9c40; stroke:none;" d="M240.333 162.667L240.667 163.333L240.333 162.667M222.333 163.667L222.667 164.333L222.333 163.667M339.333 163.667L339.667 164.333L339.333 163.667z"/>
<path style="fill:#f3eae2; stroke:none;" d="M239.333 164.667L239.667 165.333L239.333 164.667M222.333 165.667L222.667 166.333L222.333 165.667M339 165L340 166L339 165z"/>
<path style="fill:#fc9c40; stroke:none;" d="M221 166L221 169L222 169L221 166M239 166L240 167L239 166z"/>
<path style="fill:#f3eae2; stroke:none;" d="M238.333 167.667L238.667 168.333L238.333 167.667z"/>
<path style="fill:#fc9c40; stroke:none;" d="M338 167L339 168L338 167z"/>
<path style="fill:#f3eae2; stroke:none;" d="M338 168L339 169L338 168M221.333 169.667L221.667 170.333L221.333 169.667z"/>
<path style="fill:#fc9c40; stroke:none;" d="M238.333 169.667L238.667 170.333L238.333 169.667z"/>
<path style="fill:#f3eae2; stroke:none;" d="M237.333 170.667L237.667 171.333L237.333 170.667z"/>
<path style="fill:#fc9c40; stroke:none;" d="M337 170L338 171L337 170M221 171L222 172L221 171z"/>
<path style="fill:#f3eae2; stroke:none;" d="M337 171L338 172L337 171M222 172L225 175L222 172z"/>
<path style="fill:#fc9c40; stroke:none;" d="M237.333 172.667L237.667 173.333L237.333 172.667M222 173L223 174L222 173z"/>
<path style="fill:#f3eae2; stroke:none;" d="M236 173L225 175L225 176C228.417 176.632 236.133 178.293 236 173M111.333 174.667L111.667 175.333L111.333 174.667z"/>
<path style="fill:#fc9c40; stroke:none;" d="M223 174L224 175L223 174M336 174L337 175L336 174M112 175L112 178L113 178L112 175z"/>
<path style="fill:#f3eae2; stroke:none;" d="M336 175L337 176L336 175z"/>
<path style="fill:#fc9c40; stroke:none;" d="M227 176L228 177L227 176M234 176L235 177L234 176M335 177L336 178L335 177z"/>
<path style="fill:#f3eae2; stroke:none;" d="M112 178L112 181L113 181L112 178M335 178L336 179L335 178z"/>
<path style="fill:#fc9c40; stroke:none;" d="M113.333 180.667L113.667 181.333L113.333 180.667z"/>
<path style="fill:#f3eae2; stroke:none;" d="M334.333 181.667L334.667 182.333L334.333 181.667M113.333 182.667L113.667 183.333L113.333 182.667z"/>
<path style="fill:#fc9c40; stroke:none;" d="M114.333 183.667L114.667 184.333L114.333 183.667M333 184L334 185L333 184z"/>
<path style="fill:#f3eae2; stroke:none;" d="M114 185L115 186L114 185M333 185L334 186L333 185z"/>
<path style="fill:#fc9c40; stroke:none;" d="M115 186L116 187L115 186z"/>
<path style="fill:#f3eae2; stroke:none;" d="M115 187L116 188L115 187z"/>
<path style="fill:#fc9c40; stroke:none;" d="M332 187L333 188L332 187z"/>
<path style="fill:#f3eae2; stroke:none;" d="M333 187L334 188L333 187z"/>
<path style="fill:#fc9c40; stroke:none;" d="M116 188L117 189L116 188z"/>
<path style="fill:#f3eae2; stroke:none;" d="M332 188L332 191L333 191L332 188M116 189L118 192L116 189z"/>
<path style="fill:#fc9c40; stroke:none;" d="M117 190L118 191L117 190M331 191L332 192L331 191z"/>
<path style="fill:#f3eae2; stroke:none;" d="M118 192L120 195L118 192M331 192L330 198L331 198L331 192z"/>
<path style="fill:#fc9c40; stroke:none;" d="M119 193L120 194L119 193M330 194L331 195L330 194z"/>
<path style="fill:#f3eae2; stroke:none;" d="M120 195L122 198L120 195z"/>
<path style="fill:#fc9c40; stroke:none;" d="M121 196L122 197L121 196z"/>
<path style="fill:#f3eae2; stroke:none;" d="M122 198L123 199L122 198M329 198L325 215L326 215L329 198M123 199L124 200L123 199M124 200L125 201L124 200M125 201L126 202L125 201z"/>
<path style="fill:#fc9c40; stroke:none;" d="M328 201L329 202L328 201z"/>
<path style="fill:#f3eae2; stroke:none;" d="M126 202L127 203L126 202M127 203L128 204L127 203M128 204L133 208L133 207L128 204z"/>
<path style="fill:#fc9c40; stroke:none;" d="M129 204L130 205L129 204M327 204L328 205L327 204M130 205L131 206L130 205M132 206L133 207L132 206M133 207L134 208L133 207z"/>
<path style="fill:#f3eae2; stroke:none;" d="M134 208L136 210L134 208z"/>
<path style="fill:#fc9c40; stroke:none;" d="M135 208L136 209L135 208M326 208L327 209L326 208M136 209L137 210L136 209z"/>
<path style="fill:#f3eae2; stroke:none;" d="M137 210L138 211L137 210z"/>
<path style="fill:#fc9c40; stroke:none;" d="M138 210L139 211L138 210z"/>
<path style="fill:#f3eae2; stroke:none;" d="M139.667 211.333L140.333 211.667L139.667 211.333z"/>
<path style="fill:#fc9c40; stroke:none;" d="M325 211L326 212L325 211z"/>
<path style="fill:#f3eae2; stroke:none;" d="M141.667 212.333L142.333 212.667L141.667 212.333z"/>
<path style="fill:#fc9c40; stroke:none;" d="M143 212L144 213L143 212z"/>
<path style="fill:#f3eae2; stroke:none;" d="M144.667 213.333L145.333 213.667L144.667 213.333z"/>
<path style="fill:#fc9c40; stroke:none;" d="M146 213L147 214L146 213z"/>
<path style="fill:#f3eae2; stroke:none;" d="M148 214L149 215L148 214z"/>
<path style="fill:#fc9c40; stroke:none;" d="M149.667 214.333L150.333 214.667L149.667 214.333z"/>
<path style="fill:#f3eae2; stroke:none;" d="M151.667 215.333L152.333 215.667L151.667 215.333z"/>
<path style="fill:#fc9c40; stroke:none;" d="M153 215L154 216L153 215z"/>
<path style="fill:#f3eae2; stroke:none;" d="M324 215L320 226L321 226L324 215M154.667 216.333L155.333 216.667L154.667 216.333z"/>
<path style="fill:#fc9c40; stroke:none;" d="M156.667 216.333L157.333 216.667L156.667 216.333z"/>
<path style="fill:#f3eae2; stroke:none;" d="M158.667 217.333L159.333 217.667L158.667 217.333z"/>
<path style="fill:#fc9c40; stroke:none;" d="M160 217L161 218L160 217M323 217L324 218L323 217z"/>
<path style="fill:#f3eae2; stroke:none;" d="M161.667 218.333L162.333 218.667L161.667 218.333z"/>
<path style="fill:#fc9c40; stroke:none;" d="M163.667 218.333L164.333 218.667L163.667 218.333z"/>
<path style="fill:#f3eae2; stroke:none;" d="M165 219L166 220L165 219z"/>
<path style="fill:#fc9c40; stroke:none;" d="M166.667 219.333L167.333 219.667L166.667 219.333z"/>
<path style="fill:#f3eae2; stroke:none;" d="M168.667 220.333L169.333 220.667L168.667 220.333z"/>
<path style="fill:#fc9c40; stroke:none;" d="M170.667 220.333L171.333 220.667L170.667 220.333M322 220L323 221L322 220z"/>
<path style="fill:#f3eae2; stroke:none;" d="M171.667 221.333L172.333 221.667L171.667 221.333z"/>
<path style="fill:#fc9c40; stroke:none;" d="M173.667 221.333L174.333 221.667L173.667 221.333z"/>
<path style="fill:#f3eae2; stroke:none;" d="M175.667 222.333L176.333 222.667L175.667 222.333z"/>
<path style="fill:#fc9c40; stroke:none;" d="M177.667 222.333L178.333 222.667L177.667 222.333M321 222L322 223L321 222z"/>
<path style="fill:#f3eae2; stroke:none;" d="M178.667 223.333L179.333 223.667L178.667 223.333z"/>
<path style="fill:#fc9c40; stroke:none;" d="M180.667 223.333L181.333 223.667L180.667 223.333z"/>
<path style="fill:#f3eae2; stroke:none;" d="M181 224L181 225L184 225L181 224z"/>
<path style="fill:#fc9c40; stroke:none;" d="M184.667 224.333L185.333 224.667L184.667 224.333M320 224L321 225L320 224z"/>
<path style="fill:#f3eae2; stroke:none;" d="M185.667 225.333L186.333 225.667L185.667 225.333z"/>
<path style="fill:#fc9c40; stroke:none;" d="M187.667 225.333L188.333 225.667L187.667 225.333z"/>
<path style="fill:#f3eae2; stroke:none;" d="M188 226L188 227L191 227L188 226z"/>
<path style="fill:#fc9c40; stroke:none;" d="M191.667 226.333L192.333 226.667L191.667 226.333z"/>
<path style="fill:#f3eae2; stroke:none;" d="M319 226L316 232L319 226M192.667 227.333L193.333 227.667L192.667 227.333z"/>
<path style="fill:#fc9c40; stroke:none;" d="M194.667 227.333L195.333 227.667L194.667 227.333M318 227L319 228L318 227z"/>
<path style="fill:#f3eae2; stroke:none;" d="M195.667 228.333L196.333 228.667L195.667 228.333z"/>
<path style="fill:#fc9c40; stroke:none;" d="M197 228L197 229L200 229L197 228z"/>
<path style="fill:#f3eae2; stroke:none;" d="M198 229L198 230L201 230L198 229z"/>
<path style="fill:#fc9c40; stroke:none;" d="M201.667 229.333L202.333 229.667L201.667 229.333z"/>
<path style="fill:#f3eae2; stroke:none;" d="M202 230L202 231L263 248L263 247L202 230z"/>
<path style="fill:#fc9c40; stroke:none;" d="M205.667 230.333L206.333 230.667L205.667 230.333M316 230L317 231L316 230M208.667 231.333L209.333 231.667L208.667 231.333M212 232L213 233L212 232z"/>
<path style="fill:#f3eae2; stroke:none;" d="M315 232L309 239C312.158 237.511 315.08 235.717 315 232z"/>
<path style="fill:#fc9c40; stroke:none;" d="M215.667 233.333L216.333 233.667L215.667 233.333M219 234L220 235L219 234M222 235L223 236L222 235M225 236L226 237L225 236M232 238L233 239L232 238M235 239L236 240L235 239M307 239L308 240L307 239z"/>
<path style="fill:#f3eae2; stroke:none;" d="M308 239L309 240L308 239z"/>
<path style="fill:#fc9c40; stroke:none;" d="M239 240L240 241L239 240z"/>
<path style="fill:#f3eae2; stroke:none;" d="M305 242L308 240L305 242z"/>
<path style="fill:#fc9c40; stroke:none;" d="M242 241L243 242L242 241M303 242L304 243L303 242z"/>
<path style="fill:#f3eae2; stroke:none;" d="M304 242L305 243L304 242z"/>
<path style="fill:#fc9c40; stroke:none;" d="M249 243L250 244L249 243z"/>
<path style="fill:#f3eae2; stroke:none;" d="M302.667 243.333L303.333 243.667L302.667 243.333z"/>
<path style="fill:#fc9c40; stroke:none;" d="M252 244L253 245L252 244M299 244L300 245L299 244z"/>
<path style="fill:#f3eae2; stroke:none;" d="M300.667 244.333L301.333 244.667L300.667 244.333z"/>
<path style="fill:#fc9c40; stroke:none;" d="M256 245L257 246L256 245M297 245L298 246L297 245z"/>
<path style="fill:#f3eae2; stroke:none;" d="M298.667 245.333L299.333 245.667L298.667 245.333z"/>
<path style="fill:#fc9c40; stroke:none;" d="M259 246L260 247L259 246M295 246L296 247L295 246z"/>
<path style="fill:#f3eae2; stroke:none;" d="M296.667 246.333L297.333 246.667L296.667 246.333z"/>
<path style="fill:#fc9c40; stroke:none;" d="M292 247L293 248L292 247z"/>
<path style="fill:#f3eae2; stroke:none;" d="M293.667 247.333L294.333 247.667L293.667 247.333M263 248L263 249L271 250L271 249L263 248z"/>
<path style="fill:#fc9c40; stroke:none;" d="M266 248L267 249L266 248M288 248L289 249L288 248z"/>
<path style="fill:#f3eae2; stroke:none;" d="M289 248L289 249L293 249L289 248z"/>
<path style="fill:#fc9c40; stroke:none;" d="M271.667 249.333L272.333 249.667L271.667 249.333M280 249L280 250L285 250L280 249z"/>
<path style="fill:#f3eae2; stroke:none;" d="M285 249L285 250L289 250L285 249M272 250L272 251L284 251L272 250M131 267L131 268L184 262.439L208 273C189.924 249.911 154.399 265.995 131 267z"/>
<path style="fill:#70e1e0; stroke:none;" d="M167 262.428C133.574 267.215 100.41 273.807 67 278.728C45.1943 281.941 23.8301 285.514 12.4931 307C2.82699 325.319 8.90419 344.828 11.7284 364C15.1705 387.366 19.0675 410.698 22.9198 434C24.9696 446.399 25.2908 460.541 30.7855 472C39.3238 489.807 59.1254 501.746 79 499.83C115.993 496.265 153.325 488.155 190 482.08C210.668 478.657 229.442 474.561 239.73 454C249.73 434.015 242.503 410.819 239.08 390C235.793 370.008 232.224 350.043 229.272 330C227.407 317.34 226.962 302.785 221.688 291C212.022 269.405 189.972 259.139 167 262.428z"/>
<path style="fill:#f3eae2; stroke:none;" d="M282 286C290.602 279.941 296.657 272.837 307 269.356C317.839 265.708 329.716 267 341 267C361.314 267 381.693 267.483 402 266.985C427.908 266.351 451.81 263.04 475 277C464.234 263.281 441.512 265 426 265L340 265C317.961 265 295.941 266.21 282 286z"/>
<path style="fill:#fc9c40; stroke:none;" d="M407 266.424C383.671 269.488 358.535 267 335 267C319.227 267 303.946 266.648 291 277.329C273.274 291.952 273 311.896 273 333C273 368.398 270.658 404.694 273.09 440C274.099 454.665 280.81 468.675 293.004 477.226C308.472 488.073 326.091 486 344 486C362.611 486 381.408 485.225 400 486.039C415.951 486.738 433.075 488.858 449 486.572C454.854 485.731 460.652 484.305 466 481.738C501.609 464.645 493 420.475 493 388C493 348.479 506.834 283.414 458 268.348C451.823 266.442 444.452 266.032 438 266.001C427.819 265.952 417.102 265.098 407 266.424z"/>
<path style="fill:#f3eae2; stroke:none;" d="M119 269L119 270L130 269L119 269M113 270L113 271L119 271L113 270M107 271L107 272L112 272L107 271M101 272L101 273L106 273L101 272M95 273L95 274L100 274L95 273M209 273L210 274L209 273M89 274L89 275L94 275L89 274M210 274L211 275L210 274M83 275L83 276L87 276L83 275M211 275L212 276L211 275M76 276L76 277L81 277L76 276M212 276L213 277L212 276M70 277L70 278L75 278L70 277M213 277L214 278L213 277M476 277L477 278L476 277M64 278L64 279L69 279L64 278M477 278L478 279L477 278M58 279L58 280L62 280L58 279M478 279L479 280L478 279M52 280L52 281L56 281L52 280M215 280L216 281L215 280M479 280L480 281L479 280M46 281L46 282L50 282L46 281M216 281L217 282L216 281M480 281L481 282L480 281M42 282L42 283L45 283L42 282M481 282L482 283L481 282M39.6667 283.333L40.3333 283.667L39.6667 283.333M482 283L484 286L482 283M36.6667 284.333L37.3333 284.667L36.6667 284.333M218 284L219 285L218 284M34.6667 285.333L35.3333 285.667L34.6667 285.333M32.6667 286.333L33.3333 286.667L32.6667 286.333M219 286L220 287L219 286M484 286L485 287L484 286M30.6667 287.333L31.3333 287.667L30.6667 287.333M281 287L282 288L281 287M485 287L487 290L485 287M29 288L30 289L29 288M220 288L221 289L220 288M280 288L281 289L280 288M27 289L28 290L27 289M26 290L27 291L26 290M221 290L222 291L221 290M279 290L280 291L279 290M487.333 290.667L487.667 291.333L487.333 290.667M25 291L26 292L25 291M222.333 291.667L222.667 292.333L222.333 291.667M278.333 291.667L278.667 292.333L278.333 291.667M23.6667 292.333L24.3333 292.667L23.6667 292.333M488.333 292.667L488.667 293.333L488.333 292.667M22 293L23 294L22 293M277.333 293.667L277.667 294.333L277.333 293.667M21 294L22 295L21 294M223.333 294.667L223.667 295.333L223.333 294.667M489.333 294.667L489.667 295.333L489.333 294.667M20 295L21 296L20 295M276 295L275 301L276 301L276 295M19 296L20 297L19 296M490 296L490 299L491 299L490 296M18 297L15 302L18 297M224 297L224 300L225 300L224 297M491 299L491 302L492 302L491 299M274 301L274 304L275 304L274 301M14 302L12 307L13 307L14 302M225 302L225 306L226 306L225 302M492 302L493 381L491 454L492 454C496.02 439.694 495 424.711 495 410L495 343C495 331.274 498.213 312.371 492 302M273 304L273 310L274 310L273 304M11.3333 307.667L11.6667 308.333L11.3333 307.667M226 308L226 312L227 312L226 308M10 309L8 317L9 317L10 309M272 310L273 449L274 449C273.334 416.716 273 384.36 273 352C273 340.056 276.607 320.98 272 310M227 314L227 318L228 318L227 314M7 317C3.42695 345.272 14.7976 371.995 16 400L17 400L7.75386 339L7 317M228 320L228 325L229 325L228 320M364 357L364 356C349.545 355.208 354.112 339.38 362.093 332.681C377.184 320.015 395.089 326.241 409 336C400.252 319.496 369.359 320.41 358.39 334.015C351.397 342.691 350.109 356.664 364 357z"/>
<path style="fill:#010101; stroke:none;" d="M402 374C409.442 363.299 416.821 348.805 408.297 336.001C397.395 319.624 362.607 321.989 355.559 341C353.008 347.883 355.646 360.956 365.772 354.821C369.848 352.352 369.062 346.707 371.728 343.214C377.888 335.139 392.55 337.778 395.968 347.001C398.445 353.687 396.328 362.34 389.985 366.062C385.395 368.754 376.113 367.502 378.449 375.867C379.919 381.129 388.044 379.811 391.996 382.09C400.726 387.123 402.388 402.366 395.606 409.786C389.417 416.556 376.517 416.411 370.279 409.786C367.452 406.785 367.838 402.403 365.262 399.434C362.799 396.595 356.505 395.98 353.742 398.742C344.517 407.967 361.552 422.872 369 425.557C381.021 429.89 398.465 428.636 407.532 418.816C418.896 406.509 418.008 381.638 402 374z"/>
<path style="fill:#f3eae2; stroke:none;" d="M229 326L229 332L230 332L229 326M104 333L104 334C127.181 328.686 147.982 335.554 148 363C159.022 336.732 122.062 326.267 104 333z"/>
<path style="fill:#010101; stroke:none;" d="M114 421C110.207 410.347 118.434 402.914 125.428 395.715C137.002 383.8 151.49 370.423 147.32 352C143.039 333.085 122.682 327.228 106 333.384C95.0902 337.41 85.843 350.059 90.1481 361.981C91.9232 366.896 98.6884 368.831 102.397 364.566C105.454 361.051 103.875 355.07 106.703 351.043C113.385 341.529 127.361 343.468 131.772 354.001C136.408 365.072 124.818 375.874 118.039 383C104.923 396.785 92.5109 409.776 98.9421 429.981C100.797 435.809 105.802 435.713 111 434.916C122.676 433.126 134.344 431.155 146 429.246C150.39 428.527 157.467 428.349 158.663 422.956C159.937 417.212 154.801 414.854 150 415.094C138.28 415.681 125.384 418.195 114 421z"/>
<path style="fill:#f3eae2; stroke:none;" d="M230 332L230 338L231 338L230 332M102 334L103 335L102 334M100.667 335.333L101.333 335.667L100.667 335.333M99 336L100 337L99 336M96 339L99 337L96 339M409 337L410 338L409 337M231 338L231 344L232 344L231 338M376 339L376 340L390 340L376 339M95 339L94 342L95 339M410.333 339.667L410.667 340.333L410.333 339.667M374.667 340.333L375.333 340.667L374.667 340.333M390.667 340.333L391.333 340.667L390.667 340.333M371 344L374 341L371 344M392 341L393 342L392 341M93 342L94 343L93 342M393 342L394 343L393 342M411 342L411 346L412 346L411 342M92 343L93 344L92 343M394 343L396 358L397 358L394 343M111 346L111 347L124 346L111 346M232 344L232 350L233 350L232 344M370.333 344.667L370.667 345.333L370.333 344.667M91 345L92 346L91 345M124.667 346.333L125.333 346.667L124.667 346.333M90.3333 347.667L90.6667 348.333L90.3333 347.667M108 349L111 347L108 349M126 347L129 349L126 347M369 348L369 352L370 352L369 348M89 349L89 353L90 353L89 349M107 349L108 350L107 349M129.333 349.667L129.667 350.333L129.333 349.667M106.333 350.667L106.667 351.333L106.333 350.667M233 350L236 375L237 375L233 350M130 351L131 352L130 351M105 352L105 355L106 355L105 352M131 352L131 355L132 355L131 352M368.333 352.667L368.667 353.333L368.333 352.667M411 353L411 358L412 358L411 353M88 354L88 357L89 357L88 354M367 354L368 355L367 354M104 355L104 364L105 364L104 355M132 355L132 363L133 363L132 355M365.667 355.333L366.333 355.667L365.667 355.333M395 358L395 361L396 361L395 358M89 359L89 363L90 363L89 359M410 359L410 362L411 362L410 359M394.333 361.667L394.667 362.333L394.333 361.667M393 363L394 364L393 363M409.333 363.667L409.667 364.333L409.333 363.667M90 364L91 365L90 364M103 364L104 365L103 364M131.333 364.667L131.667 365.333L131.333 364.667M147 364L147 368L148 368L147 364M392 364L393 365L392 364M91 365L92 366L91 365M102 365L103 366L102 365M380 367L380 368L392 366L380 367M408 365L409 366L408 365M92 366L93 367L92 366M100.667 366.333L101.333 366.667L100.667 366.333M130.333 366.667L130.667 367.333L130.333 366.667M93 367L93 368L100 368L93 367M407 367L408 368L407 367M129.333 368.667L129.667 369.333L129.333 368.667M146.333 368.667L146.667 369.333L146.333 368.667M379 368L380 369L379 368M406 368L404 371L406 368M378.333 369.667L378.667 370.333L378.333 369.667M128.333 370.667L128.667 371.333L128.333 370.667M145 370L145 373L146 373L145 370M377 371L377 377L378 377L377 371M403 371L404 372L403 371M127 372L128 373L127 372M402.333 372.667L402.667 373.333L402.333 372.667M126 373L127 374L126 373M144 373L145 374L144 373M125 374L126 375L125 374M143.333 374.667L143.667 375.333L143.333 374.667M403.667 374.333L404.333 374.667L403.667 374.333M124 375L123 378L124 375M237 375L237 381L238 381L237 375M405 375L406 376L405 375M142 376L141 379L142 376M406.667 376.333L407.333 376.667L406.667 376.333M378.333 377.667L378.667 378.333L378.333 377.667M408 377L409 378L408 377M122 378L123 379L122 378M409 378L410 379L409 378M121 379L122 380L121 379M140 379L139 382L140 379M379 379L379 380L392 382L392 381L379 379M410.333 379.667L410.667 380.333L410.333 379.667M120 380L121 381L120 380M119 381L120 382L119 381M238 381L238 387L239 387L238 381M411 381L412 382L411 381M118 382L119 383L118 382M138 382L139 383L138 382M392 382L395 384L392 382M117 383L118 384L117 383M137 383L138 384L137 383M412 383L413 384L412 383M116 384L117 385L116 384M136 384L137 385L136 384M395 384L396 385L395 384M115 385L116 386L115 385M135 385L125 397C128.799 394.324 135.106 389.988 135 385M396 385C401.345 405.203 393.556 414.609 373 412L373 413C379.835 414.921 387.544 416.278 393.895 411.995C401.309 406.995 401.812 391.197 396 385M413.333 385.667L413.667 386.333L413.333 385.667M114 386L115 387L114 386M113 387L107 395L113 387M239 387L239 393L240 393L239 387M414 387L414 392L415 392L414 387M240 393L243 418L244 418L240 393M106 395L107 396L106 395M415.333 395.667L415.667 396.333L415.333 395.667M105 396L106 397L105 396M355 396L355 397L363 397L355 396M104 397L103 400L104 397M120 402L125 397L120 402M353.667 397.333L354.333 397.667L353.667 397.333M363.667 397.333L364.333 397.667L363.667 397.333M352.333 398.667L352.667 399.333L352.333 398.667M365 398L366 399L365 398M366.333 399.667L366.667 400.333L366.333 399.667M17 400L19 418L20 418L17 400M102 400L103 401L102 400M351 400L351 408L352 408L351 400M101 401L100 404L101 401M119 402L120 403L119 402M414 402L414 407L415 407L414 402M118 403L119 404L118 403M367 403L367 406L368 406L367 403M99.3333 404.667L99.6667 405.333L99.3333 404.667M117 404L118 405L117 404M116 405L117 406L116 405M98.3333 406.667L98.6667 407.333L98.3333 406.667M115.333 406.667L115.667 407.333L115.333 406.667M368 407L373 412L368 407M97 408L97 411L98 411L97 408M114.333 408.667L114.667 409.333L114.333 408.667M352 408L353 414L354 414L352 408M413.333 408.667L413.667 409.333L413.333 408.667M113.333 410.667L113.667 411.333L113.333 410.667M412.333 411.667L412.667 412.333L412.333 411.667M96 412L96 421L97 421L96 412M112 413L112 418L113 418L112 413M147 414L147 415L159 418C156.288 412.977 152.093 413.824 147 414M411.333 413.667L411.667 414.333L411.333 413.667M354 414L356 417L354 414M141 415L141 416L147 416L141 415M410 415L411 416L410 415M135 416L135 417L141 417L135 416M409 416L408 419L409 416M129 417L129 418L133 418L129 417M356 417L357 418L356 417M20 418L20 425L21 425L20 418M123 418L123 419L129 419L123 418M159 418L159 425L160 425L159 418M244 418L244 424L245 424L244 418M357 418L360 421L357 418M113 419L114 420L113 419M116 419L116 420L122 420L116 419M407 419L408 420L407 419M114.667 420.333L115.333 420.667L114.667 420.333M406 420L407 421L406 420M360 421L361 422L360 421M403 423L406 421L403 423M97 422L97 427L98 427L97 422M361 422L364 424L361 422M400 425L403 423L400 425M245 424L244 444L245 444L245 424M364 424L364 425L372 427L372 426L364 424M21 425L21 431L22 431L21 425M158 425L159 426L158 425M397 425L397 426L400 426L397 425M157 426L150 428L150 429C152.428 428.99 158.267 429.408 157 426M394 426L394 427L397 427L394 426M372 427L372 428L394 428L372 427M98 428L98 432L99 432L98 428M144 429L144 430L150 430L144 429M119 433L119 434L144 431L119 433M22 431L22 437L23 437L22 431M99.3333 432.667L99.6667 433.333L99.3333 432.667M100 434L101 435L100 434M113 434L113 435L119 435L113 434M101 435L101 436L107 437L101 435M107 435L107 436L113 436L107 435M23 437L23 443L24 443L23 437M24 444L24 449L25 449L24 444M243 444L243 447L244 447L243 444M242 447L242 450L243 450L242 447M274 449L275 456L276 456L274 449M25 450L25 455L26 455L25 450M241.333 450.667L241.667 451.333L241.333 450.667M240.333 452.667L240.667 453.333L240.333 452.667M239.333 454.667L239.667 455.333L239.333 454.667M490 454L489 459L490 459L490 454M26 456L26 460L27 460L26 456M238.333 456.667L238.667 457.333L238.333 456.667M276.333 456.667L276.667 457.333L276.333 456.667M237 458L238 459L237 458M277.333 458.667L277.667 459.333L277.333 458.667M236.333 459.667L236.667 460.333L236.333 459.667M488.333 459.667L488.667 460.333L488.333 459.667M278.333 460.667L278.667 461.333L278.333 460.667M235 461L236 462L235 461M487.333 461.667L487.667 462.333L487.333 461.667M27 462L27 465L28 465L27 462M234 462L235 463L234 462M279 462L280 463L279 462M233 463L234 464L233 463M486.333 463.667L486.667 464.333L486.333 463.667M232 464L233 465L232 464M280 464L281 465L280 464M231.333 465.667L231.667 466.333L231.333 465.667M281.333 465.667L281.667 466.333L281.333 465.667M485 465L486 466L485 465M28.3333 466.667L28.6667 467.333L28.3333 466.667M484 466L483 469L484 466M230 467L231 468L230 467M282 467L283 468L282 467M228 468L229 469L228 468M283 468L284 469L283 468M29 469L30 470L29 469M227 469L228 470L227 469M284 469L285 470L284 469M482 469L483 470L482 469M226 470L227 471L226 470M285 470L286 471L285 470M481 470L482 471L481 470M30 471L31 472L30 471M224.667 471.333L225.333 471.667L224.667 471.333M286.333 471.667L286.667 472.333L286.333 471.667M480 471L481 472L480 471M223 472L224 473L223 472M479 472L480 473L479 472M31 473L32 474L31 473M222 473L223 474L222 473M287.667 473.333L288.333 473.667L287.667 473.333M478 473L479 474L478 473M220 474L221 475L220 474M289 474L290 475L289 474M477 474L478 475L477 474M32 475L33 476L32 475M218 475L219 476L218 475M290 475L291 476L290 475M476 475L477 476L476 475M216 476L217 477L216 476M291 476L292 477L291 476M473 478L476 476L473 478M33 477L34 478L33 477M213.667 477.333L214.333 477.667L213.667 477.333M292 477L295 479L292 477M34 478L35 479L34 478M210.667 478.333L211.333 478.667L210.667 478.333M472 478L473 479L472 478M35.3333 479.667L35.6667 480.333L35.3333 479.667M205 479L205 480L209 480L205 479M295.667 479.333L296.333 479.667L295.667 479.333M470.667 479.333L471.333 479.667L470.667 479.333M199 480L199 481L205 481L199 480M297 480L297 481L302 483L302 482L297 480M468.667 480.333L469.333 480.667L468.667 480.333M36 481L37 482L36 481M193 481L193 482L199 482L193 481M466.667 481.333L467.333 481.667L466.667 481.333M37 482L38 483L37 482M187 482L187 483L193 483L187 482M462 483L462 484L466 483L462 483M38.3333 483.667L38.6667 484.333L38.3333 483.667M181 483L181 484L187 484L181 483M302 483L302 484L305 484L302 483M175 484L175 485L181 485L175 484M305 484L305 485C330.4 490.806 358.015 488 384 488C409.676 488 436.902 490.737 462 485L446 486.83L417 487L305 484M39 485L44 489L39 485M106 495L106 496L175 486L154 487.586L106 495M44 489L45 490L44 489M45 490L46 491L45 490M46.6667 491.333L47.3333 491.667L46.6667 491.333M48 492L51 494L48 492M51.6667 494.333L52.3333 494.667L51.6667 494.333M53.6667 495.333L54.3333 495.667L53.6667 495.333M55 496L55 497L60 498L60 497L55 496M100 496L100 497L106 497L100 496M94 497L94 498L100 498L94 497M60 498L60 499L63 499L60 498M87 498L87 499L93 499L87 498M65 499L65 500L70 500L65 499M81 499L81 500L86 500L81 499z"/>
</svg>
