<?xml version="1.0" encoding="iso-8859-1"?>
<!-- Generator: Adobe Illustrator 19.0.0, SVG Export Plug-In . SVG Version: 6.00 Build 0)  -->
<svg version="1.1" id="Layer_1" xmlns="http://www.w3.org/2000/svg" xmlns:xlink="http://www.w3.org/1999/xlink" x="0px" y="0px"
	 viewBox="0 0 511.999 511.999" style="enable-background:new 0 0 511.999 511.999;" xml:space="preserve">
<path style="fill:#B7E4F8;" d="M354.152,390.851c-26.288,0-47.674,21.386-47.674,47.674c0,26.288,21.386,47.674,47.674,47.674
	c26.288,0,47.674-21.386,47.674-47.674C401.826,412.237,380.44,390.851,354.152,390.851z"/>
<path style="fill:#4BBAED;" d="M255.999,334.634c-61.925,0-112.304,50.379-112.304,112.304v13.633
	c0,28.164,22.913,51.076,51.076,51.076h122.454c28.164,0,51.076-22.913,51.076-51.076v-13.633
	C368.304,385.014,317.924,334.634,255.999,334.634z"/>
<g>
	<rect x="205.526" y="446.938" style="fill:#388CB2;" width="33.652" height="65.061"/>
	<rect x="272.831" y="446.938" style="fill:#388CB2;" width="33.652" height="65.061"/>
</g>
<path style="fill:#4BBAED;" d="M399.955,7.716C372.06-8.279,336.346,1.4,320.348,29.298c-6.623,11.548-29.844,74.343-69.018,186.641
	l-7.5,21.499l52.95,1.992l5.29-6.217C411.886,104.152,419.149,91.487,421.536,87.326C437.534,59.428,427.853,23.716,399.955,7.716z"
	/>
<path style="fill:#6FC8F1;" d="M260.669,215.938c-39.174-112.297-62.395-175.092-69.018-186.641
	c-15.998-27.897-51.709-37.579-79.608-21.58c-27.897,15.998-37.579,51.71-21.58,79.609c2.387,4.162,9.65,16.826,119.466,145.888
	l5.29,6.217l52.95-1.992L260.669,215.938z"/>
<path style="fill:#B7E4F8;" d="M357.605,175.432c-28.648-31.077-64.733-48.191-101.606-48.191s-72.957,17.114-101.606,48.191
	c-25.934,28.132-41.417,63.584-41.417,94.831c0,31.526,15.434,60.89,43.459,82.686c26.774,20.824,62.134,32.293,99.564,32.293
	s72.79-11.469,99.564-32.293c28.025-21.797,43.459-51.161,43.459-82.686C399.022,239.015,383.539,203.564,357.605,175.432z"/>
<path style="fill:#93D6F4;" d="M357.605,175.432c-28.648-31.077-64.733-48.191-101.606-48.191l0,0v258.002l0,0
	c37.432,0,72.79-11.469,99.564-32.293c28.025-21.797,43.459-51.161,43.459-82.686C399.022,239.015,383.539,203.564,357.605,175.432z
	"/>
<g>
	<path style="fill:#265D77;" d="M278.434,302.233c0,9.293-10.044,21.313-22.435,21.313c-12.391,0-22.435-12.021-22.435-21.313
		c0-9.294,10.044-13.461,22.435-13.461C268.39,288.772,278.434,292.94,278.434,302.233z"/>
	<circle style="fill:#265D77;" cx="194.309" cy="261.849" r="16.826"/>
	<circle style="fill:#265D77;" cx="317.69" cy="261.849" r="16.826"/>
</g>
<g>
</g>
<g>
</g>
<g>
</g>
<g>
</g>
<g>
</g>
<g>
</g>
<g>
</g>
<g>
</g>
<g>
</g>
<g>
</g>
<g>
</g>
<g>
</g>
<g>
</g>
<g>
</g>
<g>
</g>
</svg>
