<?xml version="1.0" encoding="iso-8859-1"?>
<!-- Generator: Adobe Illustrator 19.0.0, SVG Export Plug-In . SVG Version: 6.00 Build 0)  -->
<svg version="1.1" id="Layer_1" xmlns="http://www.w3.org/2000/svg" xmlns:xlink="http://www.w3.org/1999/xlink" x="0px" y="0px"
	 viewBox="0 0 512.001 512.001" style="enable-background:new 0 0 512.001 512.001;" xml:space="preserve">
<path style="fill:#FFCA66;" d="M103.185,15.164c-6.81-9.151-20.514-9.151-27.322,0l-41.248,86.419V475.11
	c0,15.789,12.8,28.589,28.589,28.589h52.639c15.789,0,28.589-12.8,28.589-28.589V101.584L103.185,15.164z"/>
<path style="fill:#FF8095;" d="M269.662,15.164c-6.81-9.151-20.514-9.151-27.322,0l-41.247,86.419V475.11
	c0,15.789,12.8,28.589,28.589,28.589h52.639c15.789,0,28.589-12.8,28.589-28.589V101.584L269.662,15.164z"/>
<path style="fill:#4DA3FF;" d="M436.139,15.164c-6.81-9.151-20.514-9.151-27.322,0l-41.247,86.419V475.11
	c0,15.789,12.8,28.589,28.589,28.589h52.639c15.789,0,28.589-12.8,28.589-28.589V101.584L436.139,15.164z"/>
<g>
	<path style="opacity:0.15;fill:#293133;enable-background:new    ;" d="M63.394,475.11V101.584l40.519-84.894l-0.727-1.525
		c-6.81-9.151-20.514-9.151-27.322,0l-41.248,86.419V475.11c0,15.789,12.8,28.589,28.589,28.589h28.779
		C76.194,503.698,63.394,490.898,63.394,475.11z"/>
	<path style="opacity:0.15;fill:#293133;enable-background:new    ;" d="M396.349,475.11V101.584l40.519-84.894l-0.728-1.525
		c-6.81-9.151-20.514-9.151-27.322,0l-41.247,86.419V475.11c0,15.789,12.8,28.589,28.589,28.589h28.779
		C409.149,503.698,396.349,490.898,396.349,475.11z"/>
	<path style="opacity:0.15;fill:#293133;enable-background:new    ;" d="M229.872,475.11V101.584l40.519-84.894l-0.728-1.525
		c-6.81-9.151-20.514-9.151-27.322,0l-41.247,86.419V475.11c0,15.789,12.8,28.589,28.589,28.589h28.779
		C242.671,503.698,229.872,490.898,229.872,475.11z"/>
</g>
<g>
	<path style="fill:#26150C;" d="M152.683,100.688c-0.007-0.069-0.022-0.134-0.031-0.201c-0.03-0.23-0.066-0.457-0.115-0.681
		c-0.018-0.077-0.04-0.153-0.06-0.23c-0.052-0.211-0.111-0.421-0.178-0.625c-0.028-0.083-0.06-0.163-0.09-0.246
		c-0.072-0.195-0.149-0.386-0.236-0.574c-0.019-0.041-0.031-0.083-0.05-0.124l-41.247-86.417c-0.232-0.486-0.51-0.947-0.832-1.38
		C105.017,3.72,97.61,0,89.523,0S74.03,3.72,69.203,10.209c-0.322,0.433-0.6,0.894-0.832,1.38L27.123,98.007
		c-0.02,0.041-0.032,0.083-0.051,0.124c-0.086,0.187-0.164,0.379-0.236,0.574c-0.03,0.082-0.062,0.163-0.09,0.246
		c-0.069,0.205-0.126,0.414-0.178,0.625c-0.02,0.076-0.042,0.153-0.06,0.23c-0.049,0.224-0.084,0.451-0.115,0.681
		c-0.009,0.068-0.023,0.134-0.031,0.201c-0.032,0.294-0.05,0.592-0.05,0.895v348.223v25.305c0,20.341,16.549,36.889,36.89,36.889
		h52.639c20.341,0,36.89-16.548,36.89-36.889v-25.305V101.582C152.733,101.28,152.715,100.981,152.683,100.688z M82.948,19.591
		c1.657-1.906,4.017-2.987,6.575-2.987c2.559,0,4.919,1.081,6.576,2.987l35.171,73.69H47.777L82.948,19.591z M136.13,475.11
		c0,11.185-9.101,20.286-20.287,20.286H63.203c-11.186,0-20.287-9.101-20.287-20.286v-17.003h93.213V475.11z M136.13,441.503H42.916
		v-32.7h93.213V441.503z M136.13,362.849H42.916V188.54h93.213V362.849z M136.13,142.584H42.916v-32.7h93.213V142.584z"/>
	<ellipse style="fill:#26150C;" cx="89.526" cy="275.693" rx="24.551" ry="54.725"/>
	<path style="fill:#26150C;" d="M319.16,100.688c-0.007-0.069-0.022-0.134-0.031-0.201c-0.03-0.23-0.066-0.457-0.115-0.681
		c-0.018-0.077-0.04-0.153-0.06-0.23c-0.052-0.211-0.111-0.421-0.178-0.625c-0.028-0.083-0.06-0.163-0.09-0.246
		c-0.072-0.195-0.149-0.386-0.236-0.574c-0.019-0.041-0.031-0.083-0.05-0.124l-41.246-86.417c-0.232-0.486-0.51-0.947-0.832-1.38
		C271.494,3.72,264.087,0,256,0c-8.087,0-15.493,3.72-20.32,10.209c-0.322,0.433-0.6,0.894-0.832,1.38L193.6,98.007
		c-0.02,0.041-0.032,0.083-0.051,0.124c-0.086,0.187-0.164,0.379-0.236,0.574c-0.03,0.082-0.062,0.163-0.09,0.246
		c-0.069,0.205-0.126,0.414-0.178,0.625c-0.02,0.076-0.042,0.153-0.06,0.23c-0.049,0.224-0.084,0.451-0.115,0.681
		c-0.009,0.068-0.023,0.134-0.031,0.201c-0.032,0.294-0.05,0.592-0.05,0.895v348.223v25.305c0,20.341,16.549,36.889,36.89,36.889
		h52.639c20.341,0,36.89-16.548,36.89-36.889v-25.305V101.582C319.211,101.28,319.192,100.981,319.16,100.688z M249.425,19.591
		c1.657-1.907,4.017-2.987,6.575-2.987c2.559,0,4.919,1.081,6.576,2.987l35.171,73.69h-83.494L249.425,19.591z M302.608,475.11
		c0,11.185-9.101,20.286-20.287,20.286h-52.64c-11.186,0-20.287-9.101-20.287-20.286v-17.003h93.213v17.003H302.608z
		 M302.608,441.503h-93.213v-32.7h93.213V441.503z M302.608,362.849h-93.213V188.54h93.213V362.849z M302.608,142.584h-93.213v-32.7
		h93.213V142.584z"/>
	<ellipse style="fill:#26150C;" cx="256.002" cy="275.693" rx="24.551" ry="54.725"/>
	<path style="fill:#26150C;" d="M485.638,100.688c-0.007-0.069-0.022-0.134-0.031-0.201c-0.03-0.23-0.066-0.457-0.115-0.681
		c-0.018-0.077-0.04-0.153-0.06-0.23c-0.052-0.211-0.111-0.421-0.178-0.625c-0.028-0.083-0.06-0.163-0.09-0.246
		c-0.072-0.195-0.149-0.386-0.236-0.574c-0.019-0.041-0.031-0.083-0.05-0.124l-41.247-86.417c-0.232-0.486-0.51-0.947-0.832-1.38
		C437.972,3.72,430.565,0,422.478,0c-8.087,0-15.493,3.72-20.32,10.209c-0.322,0.433-0.6,0.894-0.832,1.38l-41.247,86.418
		c-0.02,0.041-0.032,0.083-0.051,0.124c-0.086,0.187-0.164,0.379-0.236,0.574c-0.03,0.082-0.062,0.163-0.09,0.246
		c-0.069,0.205-0.126,0.414-0.178,0.625c-0.02,0.076-0.042,0.153-0.06,0.23c-0.049,0.224-0.084,0.451-0.115,0.681
		c-0.009,0.068-0.023,0.134-0.031,0.201c-0.032,0.294-0.05,0.592-0.05,0.895v348.223v25.305c0,20.341,16.549,36.889,36.89,36.889
		h52.639c20.341,0,36.89-16.548,36.89-36.889v-25.305V101.582C485.688,101.28,485.67,100.981,485.638,100.688z M415.903,19.591
		c1.657-1.907,4.017-2.987,6.575-2.987c2.559,0,4.919,1.081,6.576,2.987l35.171,73.69h-83.494L415.903,19.591z M469.085,475.11
		c0,11.185-9.101,20.286-20.287,20.286h-52.639c-11.186,0-20.287-9.101-20.287-20.286v-17.003h93.213V475.11z M469.085,441.503
		h-93.213v-32.7h93.213V441.503z M469.085,362.849h-93.213V188.54h93.213V362.849z M469.085,142.584h-93.213v-32.7h93.213V142.584z"
		/>
	<ellipse style="fill:#26150C;" cx="422.478" cy="275.693" rx="24.551" ry="54.725"/>
</g>
<g>
</g>
<g>
</g>
<g>
</g>
<g>
</g>
<g>
</g>
<g>
</g>
<g>
</g>
<g>
</g>
<g>
</g>
<g>
</g>
<g>
</g>
<g>
</g>
<g>
</g>
<g>
</g>
<g>
</g>
</svg>
