<?xml version="1.0" encoding="iso-8859-1"?>
<!-- Generator: Adobe Illustrator 19.0.0, SVG Export Plug-In . SVG Version: 6.00 Build 0)  -->
<svg version="1.1" id="Layer_1" xmlns="http://www.w3.org/2000/svg" xmlns:xlink="http://www.w3.org/1999/xlink" x="0px" y="0px"
	 viewBox="0 0 411.6 411.6" style="enable-background:new 0 0 411.6 411.6;" xml:space="preserve">
<path style="fill:#9CE0FF;" d="M296,379.65H40c-17.6,0-32-14.4-32-32v-224c0-17.6,14.4-32,32-32h256c17.6,0,32,14.4,32,32v224
	C328,365.25,313.6,379.65,296,379.65z"/>
<path style="fill:#00AEEF;" d="M296,387.65H40c-22,0-40-18-40-40v-224c0-22,18-40,40-40h228c4.4,0,8,3.6,8,8s-3.6,8-8,8H40
	c-13.2,0-24,10.8-24,24v224c0,13.2,10.8,24,24,24h256c13.2,0,24-10.8,24-24v-168c0-4.4,3.6-8,8-8s8,3.6,8,8v168
	C336,369.65,318,387.65,296,387.65z"/>
<path style="fill:#FFC33B;" d="M309.6,58.05l-138.8,139.2c-1.6,1.6-2.4,3.6-2.4,5.6v64.4h64.4c2,0,4-0.8,5.6-2.4l139.2-139.2"/>
<path style="fill:#F5E6C6;" d="M172.8,199.65H196c2.4,0,4,1.6,4,4v28c0,2.4,1.6,4,4,4h28c2.4,0,4,1.6,4,4v26.4h-63.2V199.65z"/>
<path style="fill:#C39215;" d="M232.8,275.25h-64.4c-4.4,0-8-3.6-8-8v-64.4c0-4.4,1.6-8.4,4.8-11.2L304,52.45c3.2-3.2,8-3.2,11.2,0
	s3.2,8,0,11.2l-138.8,139.2v56.4h56.4L372,120.05c3.2-3.2,8-3.2,11.2,0s3.2,8,0,11.2L244,270.45
	C241.2,273.65,237.2,275.25,232.8,275.25z"/>
<path style="fill:#F285F7;" d="M309.6,58.05l68,68l16.8-16.8c12.4-12.4,12.4-32.8,0-45.2l-22.8-22.8c-12.4-12.4-32.8-12.4-45.2,0
	L309.6,58.05z"/>
<path style="fill:#E229CC;" d="M377.6,134.05c-2,0-4-0.8-5.6-2.4l-68-68c-3.2-3.2-3.2-8,0-11.2l16.8-16.8
	c15.6-15.6,40.8-15.6,56.4,0l22.8,22.8c7.6,7.6,11.6,17.6,11.6,28.4s-4,20.8-11.6,28.4l-16.8,16.8
	C381.6,133.25,379.6,134.05,377.6,134.05z M320.8,58.05l56.8,56.8l11.2-11.2c4.4-4.4,6.8-10.4,6.8-16.8s-2.4-12.4-6.8-16.8
	L366,47.25c-9.2-9.2-24.4-9.2-34,0L320.8,58.05z"/>
<path style="fill:#C39215;" d="M236,274.05c-4.4,0-8-3.6-8-8v-22.4h-24c-6.8,0-12-5.2-12-12v-24h-19.2c-4.4,0-8-3.6-8-8s3.6-8,8-8
	H196c6.8,0,12,5.2,12,12v24h24c6.8,0,12,5.2,12,12v26.4C244,270.45,240.4,274.05,236,274.05z M196,207.65L196,207.65L196,207.65z"/>
<path style="fill:#6B513A;" d="M160,283.65c-2,0-4-0.8-5.6-2.4c-3.2-3.2-3.2-8,0-11.2l5.6-5.6c3.2-3.2,8-3.2,11.2,0s3.2,8,0,11.2
	l-5.6,5.6C164,282.85,162,283.65,160,283.65z"/>
<g>
</g>
<g>
</g>
<g>
</g>
<g>
</g>
<g>
</g>
<g>
</g>
<g>
</g>
<g>
</g>
<g>
</g>
<g>
</g>
<g>
</g>
<g>
</g>
<g>
</g>
<g>
</g>
<g>
</g>
</svg>
