<?xml version="1.0" encoding="iso-8859-1"?>
<!-- Generator: Adobe Illustrator 19.0.0, SVG Export Plug-In . SVG Version: 6.00 Build 0)  -->
<svg version="1.1" id="Layer_1" xmlns="http://www.w3.org/2000/svg" xmlns:xlink="http://www.w3.org/1999/xlink" x="0px" y="0px"
	 viewBox="0 0 512 512" style="enable-background:new 0 0 512 512;" xml:space="preserve">
<path style="fill:#FFD41D;" d="M256,209.49c0,25.38-20.574,45.954-45.954,45.954H56.519c-25.38,0-45.954-20.574-45.954-45.954
	V55.962c0-25.38,20.574-45.954,45.954-45.954h153.527c25.38,0,45.954,20.574,45.954,45.954V209.49z"/>
<path style="fill:#0084FF;" d="M501.435,209.925c0,25.38-20.574,45.954-45.954,45.954H301.954c-25.38,0-45.954-20.574-45.954-45.954
	V56.398c0-25.38,20.574-45.954,45.954-45.954h153.527c25.38,0,45.954,20.574,45.954,45.954V209.925z"/>
<path style="fill:#92E03F;" d="M256,455.602c0,25.38-20.574,45.954-45.954,45.954H56.519c-25.38,0-45.954-20.574-45.954-45.954
	V302.075c0-25.38,20.574-45.954,45.954-45.954h153.527c25.38,0,45.954,20.574,45.954,45.954V455.602z"/>
<path style="fill:#F3437F;" d="M501.435,455.602c0,25.38-20.574,45.954-45.954,45.954H301.954c-25.38,0-45.954-20.574-45.954-45.954
	V302.075c0-25.38,20.574-45.954,45.954-45.954h153.527c25.38,0,45.954,20.574,45.954,45.954V455.602z"/>
<circle style="fill:#FFD41D;" cx="133.287" cy="378.836" r="61.34"/>
<rect x="327.587" y="82.037" transform="matrix(-0.7071 0.7071 -0.7071 -0.7071 740.6693 -40.4646)" style="fill:#D50707;" width="102.257" height="102.257"/>
<polygon style="fill:#0084FF;" points="69.001,177.865 133.283,66.524 197.564,177.865 "/>
<polygon style="fill:#1EB615;" points="378.717,310.218 401.014,355.396 450.869,362.641 414.793,397.806 423.31,447.459 
	378.717,424.016 334.126,447.459 342.642,397.806 306.566,362.641 356.421,355.396 "/>
<path d="M511.879,209.925V56.398C511.879,25.3,486.579,0,455.481,0H301.954C283.01,0,266.232,9.398,256,23.764
	C245.768,9.398,228.99,0,210.046,0H56.519C25.421,0,0.121,25.3,0.121,56.398v153.527c0,19.018,9.472,35.854,23.935,46.075
	C9.593,266.221,0.121,283.057,0.121,302.075v153.527C0.121,486.7,25.421,512,56.519,512h153.527
	c18.942,0,35.722-9.396,45.954-23.764C266.232,502.602,283.011,512,301.954,512h153.527c31.098,0,56.398-25.3,56.398-56.398V302.075
	c0-19.018-9.472-35.854-23.935-46.075C502.407,245.779,511.879,228.943,511.879,209.925z M21.009,56.398
	c0-19.58,15.929-35.51,35.51-35.51h153.527c19.58,0,35.51,15.929,35.51,35.51v153.527c0,19.58-15.929,35.51-35.51,35.51H56.519
	c-19.58,0-35.51-15.929-35.51-35.51C21.009,209.925,21.009,56.398,21.009,56.398z M269.491,256
	c-5.219,3.688-9.784,8.237-13.491,13.441c-3.707-5.205-8.272-9.754-13.491-13.441c5.219-3.688,9.784-8.236,13.491-13.441
	C259.708,247.764,264.272,252.312,269.491,256z M210.046,491.112H56.519c-19.58,0-35.51-15.929-35.51-35.51V302.075
	c0-19.579,15.929-35.51,35.51-35.51h153.527c19.58,0,35.51,15.929,35.51,35.51v153.527
	C245.556,475.183,229.627,491.112,210.046,491.112z M490.991,455.602c0,19.58-15.929,35.51-35.51,35.51H301.954
	c-19.58,0-35.51-15.929-35.51-35.51V302.075c0-19.579,15.929-35.51,35.51-35.51h153.527c19.58,0,35.51,15.929,35.51,35.51V455.602z
	 M490.991,209.925c0,19.58-15.929,35.51-35.51,35.51H301.954c-19.58,0-35.51-15.929-35.51-35.51V56.398
	c0-19.58,15.929-35.51,35.51-35.51h153.527c19.58,0,35.51,15.929,35.51,35.51V209.925z"/>
<path d="M133.283,307.055c-39.582,0-71.784,32.202-71.784,71.784s32.202,71.784,71.784,71.784s71.784-32.202,71.784-71.784
	S172.865,307.055,133.283,307.055z M133.283,429.735c-28.064,0-50.896-22.832-50.896-50.896c0-28.064,22.832-50.897,50.896-50.897
	s50.896,22.832,50.896,50.896C184.178,406.903,161.347,429.735,133.283,429.735z"/>
<path d="M386.103,53.469c-4.078-4.078-10.692-4.078-14.771,0l-72.306,72.306c-4.078,4.078-4.078,10.692,0,14.771l72.306,72.306
	c2.04,2.04,4.712,3.059,7.385,3.059c2.673,0,5.346-1.019,7.385-3.059l72.306-72.306c4.078-4.078,4.078-10.692,0-14.771
	L386.103,53.469z M378.717,190.698l-57.536-57.536l57.536-57.536l57.536,57.536L378.717,190.698z"/>
<path d="M138.159,167.421c-5.768,0-10.444,4.676-10.444,10.444s4.676,10.444,10.444,10.444h0.043
	c5.768,0,10.422-4.676,10.422-10.444C148.625,172.097,143.927,167.421,138.159,167.421z"/>
<path d="M69.001,188.309h35.124c5.768,0,10.444-4.676,10.444-10.444s-4.676-10.444-10.444-10.444H87.091l46.193-80.008
	l46.191,80.008h-9.115c-5.768,0-10.444,4.676-10.444,10.444s4.676,10.444,10.444,10.444h27.205c3.732,0,7.179-1.991,9.045-5.222
	c1.866-3.231,1.866-7.213,0-10.444L142.327,61.302c-1.865-3.231-5.313-5.222-9.045-5.222c-3.732,0-7.179,1.991-9.045,5.222
	L59.956,172.643c-1.866,3.231-1.866,7.213,0,10.444C61.821,186.318,65.27,188.309,69.001,188.309z"/>
<path d="M452.371,352.305l-44.422-6.455l-19.867-40.254c-1.76-3.565-5.39-5.822-9.365-5.822c-3.976,0-7.606,2.257-9.365,5.822
	l-19.867,40.254l-44.422,6.455c-3.934,0.571-7.203,3.327-8.431,7.108c-1.228,3.781-0.204,7.931,2.643,10.706l32.144,31.332
	l-7.589,44.242c-0.673,3.919,0.938,7.879,4.155,10.215c3.216,2.336,7.48,2.644,10.999,0.795l39.732-20.888l39.732,20.888
	c1.528,0.803,3.196,1.199,4.859,1.199c2.165,0,4.321-0.673,6.14-1.995c3.217-2.336,4.827-6.297,4.155-10.215l-7.589-44.242
	l32.144-31.332c2.847-2.775,3.872-6.925,2.643-10.706C459.574,355.632,456.305,352.877,452.371,352.305z M407.503,390.327
	c-2.462,2.399-3.585,5.856-3.004,9.244l4.939,28.797l-25.862-13.596c-1.522-0.8-3.191-1.199-4.86-1.199
	c-1.669,0-3.339,0.4-4.86,1.199l-25.862,13.596l4.939-28.797c0.582-3.388-0.542-6.845-3.004-9.244l-20.922-20.394l28.913-4.202
	c3.402-0.494,6.343-2.631,7.863-5.713l12.931-26.201l12.931,26.201c1.522,3.082,4.462,5.219,7.863,5.713l28.913,4.202
	L407.503,390.327z"/>
<g>
</g>
<g>
</g>
<g>
</g>
<g>
</g>
<g>
</g>
<g>
</g>
<g>
</g>
<g>
</g>
<g>
</g>
<g>
</g>
<g>
</g>
<g>
</g>
<g>
</g>
<g>
</g>
<g>
</g>
</svg>
