<?xml version="1.0" encoding="iso-8859-1"?>
<!-- Generator: Adobe Illustrator 19.0.0, SVG Export Plug-In . SVG Version: 6.00 Build 0)  -->
<svg version="1.1" id="Layer_1" xmlns="http://www.w3.org/2000/svg" xmlns:xlink="http://www.w3.org/1999/xlink" x="0px" y="0px"
	 viewBox="0 0 512 512" style="enable-background:new 0 0 512 512;" xml:space="preserve">
<polygon style="fill:#FFDA44;" points="103.884,256 133.969,352.464 311.652,476.843 311.652,35.157 133.969,159.536 "/>
<rect y="159.536" style="fill:#D80027;" width="133.966" height="192.928"/>
<g>
	<path style="fill:#00D7DF;" d="M356.174,100.174v44.522c61.373,0,111.304,49.931,111.304,111.304s-49.931,111.304-111.304,111.304
		v44.522C442.096,411.826,512,341.923,512,256S442.096,100.174,356.174,100.174z"/>
	<path style="fill:#00D7DF;" d="M422.957,256c0-36.824-29.959-66.783-66.783-66.783v44.522c12.275,0,22.261,9.986,22.261,22.261
		c0,12.275-9.986,22.261-22.261,22.261v44.522C392.998,322.783,422.957,292.824,422.957,256z"/>
</g>
<g>
</g>
<g>
</g>
<g>
</g>
<g>
</g>
<g>
</g>
<g>
</g>
<g>
</g>
<g>
</g>
<g>
</g>
<g>
</g>
<g>
</g>
<g>
</g>
<g>
</g>
<g>
</g>
<g>
</g>
</svg>
